<svg class="svg-icon" style="width: 1em; height: 1em;vertical-align: middle;fill: currentColor;overflow: hidden;" viewBox="0 0 1024 1024" version="1.1" xmlns="http://www.w3.org/2000/svg"><path d="M360.064 476.9792l0 164.4288L123.3408 641.408c0-54.8096 0-109.5936 0-164.4288L360.064 476.9792 360.064 476.9792zM307.7376 234.0096c40.192 0 80.4096 0 120.6016 0-22.7584 73.216-45.5936 146.432-68.3776 219.6224-78.8736 0-157.7472 0-236.6208 0C184.8064 380.4416 246.3232 307.2512 307.7376 234.0096L307.7376 234.0096zM595.6096 234.0096c40.2432 0 80.4608 0 120.704 0 61.44 73.216 122.9568 146.432 184.3968 219.6224-78.9504 0-157.9008 0-236.8512 0C641.1008 380.4416 618.3424 307.2 595.6096 234.0096L595.6096 234.0096zM451.6352 234.0096c-19.328 73.1904-38.7328 146.432-58.0864 219.6224 78.8992 0 157.7984 0 236.6976 0-19.3024-73.1904-38.656-146.432-57.9584-219.6224C532.096 234.0096 491.8528 234.0096 451.6352 234.0096L451.6352 234.0096zM900.7104 673.4336l0 164.4032-236.7488 0c0-54.8096 0-109.5936 0-164.4032L900.7104 673.4336 900.7104 673.4336zM692.7616 762.624c26.24 10.9568 51.2 26.3424 72.2944 46.4384l27.9552 0c-27.648-30.1568-63.1552-51.84-100.2496-65.6384C692.7616 749.824 692.7616 756.224 692.7616 762.624L692.7616 762.624zM692.7616 788.736l0 20.352 33.7408 0C715.8528 801.1776 704.512 794.4192 692.7616 788.736L692.7616 788.736zM826.3424 809.0624l24.0896 0c-37.8624-52.8384-95.488-88.1408-154.5472-106.9056l-3.1488 0 0 16.3584C743.2448 735.3344 792.0896 765.2352 826.3424 809.0624L826.3424 809.0624zM871.9616 795.0336 871.9616 766.72c-23.04-25.856-50.2528-47.36-79.488-64.5376l-33.6384 0C802.0992 723.7376 842.3936 754.6368 871.9616 795.0336L871.9616 795.0336zM871.9616 731.0336l0-28.8512-35.3024 0C848.9472 710.9632 860.8 720.6144 871.9616 731.0336L871.9616 731.0336zM630.4 673.4336l0 164.4032-236.7744 0c0-54.8096 0-109.5936 0-164.4032L630.4 673.4336 630.4 673.4336zM422.4 762.624c26.24 10.9568 51.2512 26.3424 72.32 46.4384l27.9552 0c-27.648-30.1568-63.1808-51.84-100.2752-65.6384C422.4 749.824 422.4 756.224 422.4 762.624L422.4 762.624zM422.4 788.736l0 20.352 33.7408 0C445.5168 801.1776 434.1504 794.4192 422.4 788.736L422.4 788.736zM556.0576 809.0624l24.0896 0c-37.8624-52.8384-95.5392-88.1408-154.5728-106.9056L422.4 702.1568l0 16.3584C472.9088 735.3344 521.7792 765.2352 556.0576 809.0624L556.0576 809.0624zM601.6512 795.0336 601.6512 766.72c-23.04-25.856-50.304-47.36-79.5648-64.5376l-33.6128 0C531.7888 723.7376 572.1088 754.6368 601.6512 795.0336L601.6512 795.0336zM601.6512 731.0336l0-28.8512-35.3024 0C578.6624 710.9632 590.4896 720.6144 601.6512 731.0336L601.6512 731.0336zM360.064 673.4336l0 164.4032L123.3408 837.8368c0-54.8096 0-109.5936 0-164.4032L360.064 673.4336 360.064 673.4336zM152.0896 762.624c26.24 10.9568 51.2256 26.3424 72.32 46.4384l27.9808 0c-27.648-30.1568-63.2064-51.84-100.3008-65.6384C152.0896 749.824 152.0896 756.224 152.0896 762.624L152.0896 762.624zM152.0896 788.736l0 20.352 33.7408 0C175.2064 801.1776 163.8656 794.4192 152.0896 788.736L152.0896 788.736zM285.7216 809.0624l24.0896 0c-37.8624-52.8384-95.488-88.1408-154.5472-106.9056L152.0896 702.1568l0 16.3584C202.624 735.3344 251.4688 765.2352 285.7216 809.0624L285.7216 809.0624zM331.3152 795.0336 331.3152 766.72c-23.04-25.856-50.2784-47.36-79.5136-64.5376L218.1632 702.1824C261.4528 723.7376 301.7728 754.6368 331.3152 795.0336L331.3152 795.0336zM331.3152 731.0336l0-28.8512-35.3024 0C308.3008 710.9632 320.128 720.6144 331.3152 731.0336L331.3152 731.0336zM900.7104 476.9792l0 164.4288-236.7488 0c0-54.8096 0-109.5936 0-164.4288L900.7104 476.9792 900.7104 476.9792zM692.7616 566.272c26.24 10.9056 51.2 26.24 72.2944 46.4128l27.9552 0c-27.648-30.1568-63.1552-51.8912-100.2496-65.6384C692.7616 553.4208 692.7616 559.8208 692.7616 566.272L692.7616 566.272zM692.7616 592.3328l0 20.352 33.7408 0C715.8528 604.7744 704.512 598.016 692.7616 592.3328L692.7616 592.3328zM826.3424 612.6848l24.0896 0c-37.8624-52.8384-95.488-88.192-154.5472-106.9056l-3.1488 0 0 16.3584C743.2448 538.9312 792.0896 568.832 826.3424 612.6848L826.3424 612.6848zM871.9616 598.6304l0-28.288c-23.04-25.9072-50.2528-47.36-79.488-64.5632l-33.6384 0C802.0992 527.3344 842.3936 558.2336 871.9616 598.6304L871.9616 598.6304zM871.9616 534.6304l0-28.8512-35.3024 0C848.9472 514.5856 860.8 524.2368 871.9616 534.6304L871.9616 534.6304zM630.4 476.9792l0 164.4288-236.7744 0c0-54.8096 0-109.5936 0-164.4288L630.4 476.9792 630.4 476.9792zM422.4 566.272c26.24 10.9056 51.2512 26.24 72.32 46.4128l27.9552 0c-27.648-30.1568-63.1808-51.8912-100.2752-65.6384C422.4 553.4208 422.4 559.8208 422.4 566.272L422.4 566.272zM422.4 592.3328l0 20.352 33.7408 0C445.5168 604.7744 434.1504 598.016 422.4 592.3328L422.4 592.3328zM556.0576 612.6848l24.0896 0c-37.8624-52.8384-95.5392-88.192-154.5728-106.9056L422.4 505.7792l0 16.3584C472.9088 538.9312 521.7792 568.832 556.0576 612.6848L556.0576 612.6848zM601.6512 598.6304l0-28.288c-23.04-25.9072-50.304-47.36-79.5648-64.5632l-33.6128 0C531.7888 527.3344 572.1088 558.2336 601.6512 598.6304L601.6512 598.6304zM601.6512 534.6304l0-28.8512-35.3024 0C578.6624 514.5856 590.4896 524.2368 601.6512 534.6304L601.6512 534.6304zM152.0896 566.272c26.24 10.9056 51.2256 26.24 72.32 46.4128l27.9808 0c-27.648-30.1568-63.2064-51.8912-100.3008-65.6384C152.0896 553.4208 152.0896 559.8208 152.0896 566.272L152.0896 566.272zM152.0896 592.3328l0 20.352 33.7408 0C175.2064 604.7744 163.8656 598.016 152.0896 592.3328L152.0896 592.3328zM285.7216 612.6848l24.0896 0c-37.8624-52.8384-95.488-88.192-154.5472-106.9056L152.0896 505.7792l0 16.3584C202.624 538.9312 251.4688 568.832 285.7216 612.6848L285.7216 612.6848zM331.3152 598.6304l0-28.288c-23.04-25.9072-50.2784-47.36-79.5136-64.5632L218.1632 505.7792C261.4528 527.3344 301.7728 558.2336 331.3152 598.6304L331.3152 598.6304zM331.3152 534.6304l0-28.8512-35.3024 0C308.3008 514.5856 320.128 524.2368 331.3152 534.6304z"  /></svg>